<svg width="94" height="32" viewBox="0 0 94 32" fill="none" xmlns="http://www.w3.org/2000/svg">
<path fill-rule="evenodd" clip-rule="evenodd" d="M75.6306 7.10961C75.3352 7.08301 69.3247 7.09052 69.1252 7.11994C68.9306 7.66914 68.7599 8.23525 68.5751 8.79666C68.3918 9.35213 68.2151 9.90948 68.0347 10.4659C67.8518 11.0295 67.6666 11.5928 67.4837 12.1564C67.3007 12.7203 67.1197 13.2845 66.9367 13.8481C66.7563 14.4045 66.5743 14.9603 66.3938 15.5164C66.2109 16.0794 66.0292 16.6427 65.846 17.2091C65.7454 17.1656 65.7526 17.0723 65.7297 17.0032C65.1063 15.1118 64.4867 13.2191 63.8668 11.3268C63.4339 10.0049 63.0022 8.68275 62.5689 7.36152C62.5401 7.27328 62.5019 7.18847 62.4684 7.10335C62.4133 7.10022 62.3738 7.09584 62.3346 7.09615C58.0499 7.0974 53.7648 7.09928 49.48 7.10147C49.4725 7.10147 49.465 7.10648 49.4578 7.10992C49.4512 7.11305 49.4446 7.11743 49.4283 7.12682C49.4114 7.17877 49.3892 7.2376 49.3729 7.29831C48.7229 9.70951 48.0738 12.1207 47.4241 14.5319C47.1879 15.4094 46.9514 16.2869 46.7136 17.164C46.7002 17.2141 46.676 17.2614 46.645 17.3399C46.6077 17.242 46.5814 17.1772 46.5583 17.1115C46.1144 15.8519 45.6708 14.592 45.2272 13.3321C44.5293 11.3493 43.8316 9.36621 43.1315 7.38406C43.0983 7.28955 43.0845 7.18346 42.9971 7.09615C40.85 7.09615 38.6964 7.09615 36.5427 7.09678C36.513 7.09678 36.4838 7.10617 36.4497 7.11211C36.4306 7.22227 36.4929 7.30175 36.528 7.38625C38.7716 12.7882 40.8406 17.7661 43.0858 23.1675L43.1083 23.2219C43.4824 24.126 43.1857 25.1684 42.3913 25.7401C42.1563 25.9288 42.0739 25.9457 41.7823 26.0606C41.3522 26.2296 40.9027 26.3128 40.4456 26.366C40.0754 26.4092 39.7035 26.4167 39.3314 26.4227C39.2781 26.4233 39.2249 26.4352 39.1754 26.4414C39.145 26.6239 39.1334 29.2523 39.1506 31.7423C39.1509 31.8121 39.1578 31.8816 39.1622 31.9636C39.3442 31.9902 39.5171 31.997 39.6897 31.9989C40.2602 32.0061 40.8287 31.9767 41.3973 31.9235C42.0921 31.8584 42.7747 31.7323 43.4441 31.5361C44.7661 31.1487 45.9339 30.4931 46.932 29.5402C47.5892 28.9127 48.1355 28.198 48.6004 27.4194C49.1342 26.5269 49.5499 25.5796 49.8913 24.5992C51.2061 20.8223 52.5202 17.0454 53.8346 13.2686C54.5125 11.3205 55.1907 9.37216 55.8696 7.42442C55.8909 7.36246 55.9184 7.30238 55.9567 7.20818C56.0024 7.31427 56.0359 7.38437 56.0632 7.45728C57.7147 11.8438 62.5733 24.8023 62.6482 24.8705H68.9848C69.0246 24.7694 75.3026 8.10632 75.5836 7.35088C75.6115 7.27515 75.6757 7.20036 75.6306 7.10961ZM15.9589 13.4004C15.8235 14.5436 15.4586 15.602 14.7594 16.5292C13.8976 17.6721 12.7276 18.3549 11.2897 18.6237C10.9022 18.6966 10.5066 18.7201 10.1119 18.7198C9.01797 18.7188 7.92407 18.7195 6.83016 18.7198H6.58488C6.55826 18.5179 6.54071 6.62279 6.56295 6.25414C6.56483 6.2241 6.57548 6.19469 6.58457 6.15557C6.65255 6.15056 6.71395 6.14274 6.77534 6.14274C7.89963 6.1418 9.02423 6.13585 10.1488 6.1443C11.0604 6.15119 11.9422 6.31486 12.7699 6.7126C14.1131 7.35819 15.0275 8.41124 15.566 9.81164C15.748 10.2851 15.8674 10.7821 15.9357 11.2846C16.0309 11.9913 16.0422 12.6963 15.9589 13.4004ZM21.273 7.39804C20.4356 5.38177 19.1663 3.6919 17.4142 2.38006C15.3279 0.818177 12.9707 0.0245633 10.3665 0.00985516C6.99336 -0.00860826 3.61987 0.00453519 0.246698 0.00453519C0.176841 0.00453519 0.106671 0.010794 0.0380669 0.0139234C-0.0170668 0.139412 0.00392161 0.259581 0.00392161 0.375994C0.00266858 8.42104 0.00298184 16.4661 0.00298184 24.5111C0.00298184 24.5903 0.00141554 24.6695 0.00642769 24.7483C0.0086205 24.7856 0.0255365 24.8219 0.0396332 24.8729C0.138936 24.8748 0.232601 24.8779 0.326265 24.8779C3.50961 24.8782 6.69263 24.8782 9.87629 24.8782C10.4066 24.8785 10.9357 24.851 11.4642 24.8012C12.0569 24.7455 12.6461 24.646 13.2219 24.4939C16.2276 23.7019 18.5868 22.0054 20.2715 19.3933C21.4628 17.546 22.0799 15.5038 22.2203 13.3182C22.2826 12.3462 22.2466 11.3746 22.099 10.4079C21.9408 9.37144 21.6752 8.36596 21.273 7.39804ZM87.4173 13.8647C85.2088 13.8654 83 13.8654 80.7809 13.8654C80.7809 13.8222 80.7734 13.7903 80.7821 13.7637C81.1436 12.6834 81.8513 11.8938 83.0529 11.5318C83.3195 11.4517 83.598 11.41 83.8756 11.3969C84.8138 11.3531 85.7275 11.4632 86.6034 12.2418C86.8487 12.4596 87.0435 12.7291 87.1967 13.0186C87.3346 13.2799 87.4502 13.5484 87.5166 13.8488C87.4758 13.8557 87.4464 13.8647 87.4173 13.8647ZM90.8629 9.20139C89.212 7.45612 87.1548 6.57989 84.7787 6.42249C84.0924 6.3768 83.4032 6.39995 82.7175 6.49916C82.1292 6.58428 81.5503 6.70382 80.9861 6.8897C78.8663 7.58819 77.206 8.87405 76.0457 10.7842C75.1385 12.2779 74.7237 13.9236 74.6899 15.6752C74.6724 16.588 74.7764 17.5037 75.0148 18.3849C75.6745 20.8243 77.0976 22.6728 79.3095 23.8961C80.8141 24.7282 82.4465 25.094 84.1522 25.1588C84.9598 25.1895 85.7655 25.1507 86.5665 25.027C87.407 24.8972 88.2215 24.6831 89.004 24.3527C90.2583 23.8222 91.3293 23.043 92.198 21.9912C92.2305 21.9515 92.255 21.9048 92.2819 21.8635C92.0517 21.6664 88.1848 18.971 88.0182 18.8919C87.9564 18.9444 87.891 19.0008 87.8249 19.0562C87.0806 19.683 86.2188 20.0153 85.2518 20.0945C84.9028 20.1233 84.5563 20.1142 84.2083 20.0932C83.7475 20.0657 83.297 19.989 82.86 19.8432C81.9857 19.5519 81.3272 19.0061 80.9197 18.1721C80.8893 18.1101 80.868 18.0438 80.8323 17.9537C81.3053 17.9468 81.7539 17.9512 82.2025 17.9505C82.6536 17.9496 83.1047 17.9502 83.5564 17.9502H84.9103H86.2645H87.6187H88.9726H90.3269H91.6808H93.0453C93.0651 17.8905 93.076 17.8614 93.0842 17.8316C93.2339 17.263 93.3119 16.6856 93.3285 16.0979C93.358 15.0637 93.2577 14.0448 92.9846 13.0452C92.588 11.5932 91.9007 10.2982 90.8629 9.20139ZM29.6621 7.1052C26.4183 7.1052 23.7885 9.73201 23.7885 12.9728V24.694H29.6621V14.4583C29.6621 13.3599 30.5533 12.4696 31.6525 12.4696H35.0013V7.1052H29.6621Z" fill="#0065FF"/>
</svg>
